<svg version="1.1" id="Layer_1" xmlns="http://www.w3.org/2000/svg" xmlns:xlink="http://www.w3.org/1999/xlink" x="0px" y="0px"
	 width="100%" viewBox="0 0 512 512" enable-background="new 0 0 512 512" xml:space="preserve">

<path fill="#A4B697" opacity="1.000000" stroke="none" 
	d="
M281.250183,321.586029 
	C275.754120,330.269135 270.240662,338.941315 264.769867,347.640320 
	C262.295044,351.575500 259.904968,355.564026 256.852692,360.546539 
	C214.179565,289.251221 171.864624,218.554291 129.242386,147.343994 
	C214.577164,147.343994 299.365112,147.343994 384.835876,147.343994 
	C378.942749,157.145859 373.194733,166.622543 367.530334,176.148911 
	C360.310883,188.290512 353.159027,200.472290 346.030701,212.941177 
	C346.083313,213.245605 346.127228,213.076630 345.836029,213.086426 
	C345.369110,213.429672 345.193390,213.763123 345.013916,214.053757 
	C345.010162,214.010941 345.096069,214.008072 344.844421,214.108261 
	C344.399475,214.508209 344.206177,214.807968 343.888519,215.420853 
	C343.190430,216.544250 342.557953,217.319550 342.051575,218.169922 
	C325.387970,246.152756 308.703583,274.123291 292.108276,302.146606 
	C288.327545,308.530853 284.861206,315.101288 281.250183,321.586029 
z"/>
<path fill="#A18A62" opacity="1.000000" stroke="none" 
	d="
M356.532501,365.160492 
	C341.167511,356.309967 325.798615,347.466156 310.440826,338.603088 
	C307.425171,336.862732 304.452576,335.047729 301.327637,332.731934 
	C319.851196,291.500732 338.507202,250.804688 357.429382,210.403290 
	C358.116425,214.792786 358.537354,218.887634 358.958252,222.982483 
	C359.024536,239.765533 359.136658,256.548553 359.146790,273.331635 
	C359.163788,301.588165 359.116028,329.844757 358.740601,358.830627 
	C357.767944,361.426819 357.150208,363.293640 356.532501,365.160492 
z"/>
<path fill="#434544" opacity="1.000000" stroke="none" 
	d="
M357.163239,210.108658 
	C338.507202,250.804688 319.851196,291.500732 301.047699,332.516541 
	C294.560150,329.189758 288.220032,325.543182 281.565063,321.741302 
	C284.861206,315.101288 288.327545,308.530853 292.108276,302.146606 
	C308.703583,274.123291 325.387970,246.152756 342.051575,218.169922 
	C342.557953,217.319550 343.190430,216.544250 344.228638,215.369171 
	C344.827423,214.672287 344.961761,214.340179 345.096069,214.008072 
	C345.096069,214.008072 345.010162,214.010941 345.388794,214.166595 
	C345.887360,213.907043 346.007294,213.491837 346.127228,213.076630 
	C346.127228,213.076630 346.083313,213.245605 346.142120,213.308197 
	C349.881958,211.411453 353.562988,209.452133 357.541321,207.789459 
	C357.613495,208.760284 357.388367,209.434479 357.163239,210.108658 
z"/>
<path fill="#967E4D" opacity="1.000000" stroke="none" 
	d="
M357.429382,210.403290 
	C357.388367,209.434479 357.613495,208.760284 357.928040,207.739883 
	C358.381317,210.332245 358.835022,213.263443 359.077057,216.212021 
	C359.235962,218.148178 359.089172,220.109467 359.018768,222.520996 
	C358.537354,218.887634 358.116425,214.792786 357.429382,210.403290 
z"/>
<path fill="#967E4D" opacity="1.000000" stroke="none" 
	d="
M356.746704,365.437164 
	C357.150208,363.293640 357.767944,361.426819 358.659302,359.295258 
	C358.984558,360.968628 359.140594,362.914825 358.990875,364.837250 
	C358.964172,365.180054 357.669891,365.424164 356.746704,365.437164 
z"/>

</svg>
